PathFileType	4	(X/Y/Z)	pose_F01_0-96.trc
DataRate	CameraRate	NumFrames	NumMarkers	Units	OrigDataRate	OrigDataStartFrame	OrigNumFrames
30	30	6	21	m	30	84	96
Frame#	Time	CHip			RHip			RKnee			RAnkle			RBigToe			RSmallToe			RHeel			LHip			LKnee			LAnkle			LBigToe			LSmallToe			LHeel			Neck			Nose			RShoulder			RElbow			RWrist			LShoulder			LElbow			LWrist			
		X1	Y1	Z1	X2	Y2	Z2	X3	Y3	Z3	X4	Y4	Z4	X5	Y5	Z5	X6	Y6	Z6	X7	Y7	Z7	X8	Y8	Z8	X9	Y9	Z9	X10	Y10	Z10	X11	Y11	Z11	X12	Y12	Z12	X13	Y13	Z13	X14	Y14	Z14	X15	Y15	Z15	X16	Y16	Z16	X17	Y17	Z17	X18	Y18	Z18	X19	Y19	Z19	X20	Y20	Z20	X21	Y21	Z21	
84	2.8	-0.1876973395987514	1.8720485200650594	-0.5642701831642726	-0.20593002208562927	1.870216279106917	-0.5049449834800501	-0.18849202008956353	1.7224220788418911	-0.48821780693452804	-0.18234453276071838	1.5695389687809216	-0.47353420898396825							-0.17232024271653532	1.5566380801716742	-0.47421317907635874	-0.17330003710362704	1.874677768982823	-0.6223512656034988	-0.1675940150684239	1.7220443775131098	-0.5985878879063075	-0.1628311824070773	1.5733907148856454	-0.5645361319440741	-0.20093542220243152	1.534129211613036	-0.5983616133554359	-0.1837310658744804	1.5420192767726995	-0.6116716374793767	-0.15864370049154936	1.5582631675427385	-0.5585192724849316	-0.17410213942794425	2.0412825541049533	-0.5741635909280712	-0.21115365243179318	2.1122405503084503	-0.5969443114241252	-0.1937708647710627	2.0396686283021075	-0.4947101127034967	-0.20167930101859532	1.9539783166041778	-0.4207469715249185	-0.2495486165325554	1.885675792179174	-0.38210458959347904	-0.1543813161455733	2.045923289773559	-0.6525722220571034	-1.4812113536578475	1.8734356435009638	0.7394198751267116	-0.14424823651272425	1.9062323311520442	-0.7630491301848719
85	2.8333333333333335	-0.18969445244263464	1.8722402045632218	-0.5620527034955137	-0.2060996484559818	1.8694964226231354	-0.5047011925452308	-0.18845299777617505	1.7220444956860679	-0.48821794470076324	-0.18008161322655003	1.5706501371270611	-0.47628516424729955							-0.1720880564385154	1.5580079835918177	-0.47485663413817325	-0.1733342338966555	1.875175099915789	-0.6223337040399776	-0.16769801056876632	1.7203510793831922	-0.5982132522904469	-0.16281762650345774	1.573436429353613	-0.5644946862590683	-0.19781358858776077	1.534231307110002	-0.59727219586683	-0.1836410600664211	1.5420863457715088	-0.6116401999344644	-0.15759224656319415	1.5596214962559456	-0.5559459665942199	-0.17320757683127644	2.0424935931541017	-0.5716682722113399	-0.2111552458714269	2.1122433963283767	-0.5969110548984371	-0.19285325687272234	2.039526401911072	-0.49154059336013173	-0.2036517205091515	1.9539018807605761	-0.4184505597172604	-0.2540162870238772	1.887827766739261	-0.3724573051856538	-0.15225314533483986	2.046167871768588	-0.6548531791642813	-1.4817956333539017	1.8739091778324795	0.7402467049729312	-0.13316240413779692	1.9106055638965278	-0.7665668365172328
86	2.8666666666666667	-0.18750588986087496	1.8736281168657245	-0.5644786434295624	-0.20398160314435465	1.8704720707036624	-0.5071011894930152	-0.18745015163017192	1.721721379744914	-0.48490059579686856	-0.1820510826138647	1.5703787510662708	-0.4740610723897345							-0.17426310767332137	1.5564496345155399	-0.4720795786822156	-0.17401351750447336	1.876471255618592	-0.6256807864181483	-0.16753361168216574	1.7217354370192974	-0.5985639702767837	-0.16260448231323746	1.5748621633322941	-0.5651276442273272	-0.2001462820166414	1.5355775600299642	-0.5947632592185681	-0.18270762510262306	1.5420750740407707	-0.6084315297233494	-0.15849495386850548	1.5598849228039269	-0.5591109146084334	-0.1740635303420636	2.0412971211702384	-0.5741713290812578	-0.21114382836873521	2.112287135422356	-0.596883024616251	-0.19282601428498167	2.03831403088659	-0.49107051773089466	-0.20360730842707864	1.9564155124844258	-0.41898558903542904	-0.25452010886920856	1.8923322627287518	-0.3761966444351475	-0.15239470364939392	2.0448493538353003	-0.6548923595857461	-1.478861085619821	1.8720887805803417	0.7361974214376636	-0.13292795336730148	1.9060512948130002	-0.7658000339503427
87	2.9	-0.1876013124666139	1.871281959984659	-0.5641015749244531	-0.2058403541703366	1.8692820368005423	-0.5047831256792173	-0.18754163267465115	1.7220593490995286	-0.4848386421088032	-0.17901398699706228	1.5704007844883128	-0.4730469023311862							-0.17205440510896577	1.5581437334335904	-0.4748511875835815	-0.1740608229686079	1.874134545129405	-0.6252974668652547	-0.1673500766656315	1.7232893751637361	-0.5990003148889109	-0.16078941799746796	1.5735760448566314	-0.5667907809342783	-0.19805194452002162	1.5355773916624236	-0.5969252132393218	-0.1836386394147929	1.5420603102707358	-0.6116462578394807	-0.1586737925469858	1.5584284124193593	-0.558566216424081	-0.1740536160220007	2.041458568747041	-0.574236291179623	-0.21116872937582365	2.111031350101466	-0.5963041681219202	-0.19375841577973493	2.0385008104291398	-0.49418870307441365	-0.20341621761449444	1.953597018015941	-0.41826943634163793	-0.25181477186619117	1.8905300241705947	-0.38360612395925925	-0.15226779109886424	2.0462694647122435	-0.654855217799903	-1.482018672034256	1.8736471210536074	0.7406649458830927	-0.13119919654890924	1.9065115367420995	-0.7596090094722381
88	2.933333333333333	-0.18767922560728992	1.8725309328078084	-0.5642937740105887	-0.2041485051955229	1.8694639575947969	-0.5069927496306575	-0.18843095230389045	1.7217677915204033	-0.4881938404952398	-0.17898853217724683	1.5704510415231727	-0.47305236062685474							-0.17184769286560003	1.557254694114417	-0.47484673171464886	-0.17332290564536157	1.8751352258784537	-0.622295623251771	-0.16754479217812415	1.7190485481225901	-0.5982535036865025	-0.16050343206717602	1.5748423058879784	-0.5673702128783839	-0.20022265947289974	1.5327915602849527	-0.5944740872116314	-0.1839547258750221	1.540634014997376	-0.6110080863057499	-0.15827034935532489	1.5592214286850385	-0.5591358206882442	-0.1740705879804385	2.0413973826101977	-0.5743232866475853	-0.2111363971646332	2.1132939118918967	-0.5966598314418444	-0.19373987656467953	2.0384859005569926	-0.4942612723794744	-0.20155947167350485	1.9512808465989624	-0.4200820752422337	-0.25310993985951075	1.8877548369016872	-0.386530537820331	-0.153119818898595	2.0441982371623615	-0.6575089645640404	-1.4809329843760146	1.8719301371253543	0.7383629755077895	-0.13378203899581984	1.9001120556049813	-0.7563939542561775
89	2.966666666666667	-0.1878327655317605	1.8684546039633656	-0.5637237540314965	-0.20418052994908287	1.8667488596615491	-0.5064973946807914	-0.1882617093593927	1.720611285612826	-0.48819027718054253	-0.17903208023423434	1.5705619951945322	-0.4730639036760024							-0.17187438097380237	1.5573496079892777	-0.47488293077663546	-0.17140847749102134	1.870878314658842	-0.6240046138211266	-0.16745099818961343	1.7186594277582519	-0.598326092015462	-0.16187093485564874	1.5733415362127026	-0.5613296343688327	-0.19925952552790002	1.5327434248457925	-0.5911298821333666	-0.1851526349813591	1.5406688474883343	-0.6055769015971888	-0.157475631936299	1.5594832371265832	-0.5560064913457408	-0.17408239584083327	2.0413082700423777	-0.5742282272904915	-0.21112442726309386	2.1121111057129176	-0.5960897733680167	-0.19373492467849932	2.0384325068136055	-0.49424328500654663	-0.1997096234443978	1.9512683576361307	-0.4222753661617217	-0.2513717283758246	1.8867995142238811	-0.3887484596034108	-0.1523947690153914	2.0451180739045	-0.6548978067754722	-1.4928529017879284	1.8736490405927406	0.757872010154167	-0.1377951791268252	1.8989535074839483	-0.7482707204030487
